<svg id="options-icon" width="20px" height="20px" viewBox="0 0 20 20" version="1.1" xmlns="http://www.w3.org/2000/svg" xmlns:xlink="http://www.w3.org/1999/xlink">
    <g stroke="none" stroke-width="1" fill="none" fill-rule="evenodd">
        <g fill="#9499A0" fill-rule="nonzero">
            <path d="M6.08695652,5.65217391 C6.08730193,4.30594014 5.20315935,3.1194208 3.91304348,2.73478261 L3.91304348,0.869565217 C3.91304348,0.389317609 3.52372587,0 3.04347826,0 C2.56323065,0 2.17391304,0.389317609 2.17391304,0.869565217 L2.17391304,2.73478261 C0.886413257,3.12088182 0.00465871606,4.30585406 0.00465871606,5.65 C0.00465871606,6.99414594 0.886413257,8.17911818 2.17391304,8.56521739 L2.17391304,18.2608696 C2.17391304,18.7411172 2.56323065,19.1304348 3.04347826,19.1304348 C3.52372587,19.1304348 3.91304348,18.7411172 3.91304348,18.2608696 L3.91304348,8.56956522 C5.20315935,8.18492703 6.08730193,6.99840769 6.08695652,5.65217391 Z M3.04347826,6.95652174 C2.32310685,6.95652174 1.73913043,6.37254533 1.73913043,5.65217391 C1.73913043,4.9318025 2.32310685,4.34782609 3.04347826,4.34782609 C3.76384967,4.34782609 4.34782609,4.9318025 4.34782609,5.65217391 C4.34782609,6.37254533 3.76384967,6.95652174 3.04347826,6.95652174 Z" id="Shape"></path>
            <path d="M13.0434783,13.4782609 C13.0438237,12.1320271 12.1596811,10.9455078 10.8695652,10.5608696 L10.8695652,0.869565217 C10.8695652,0.389317609 10.4802476,0 10,0 C9.51975239,0 9.13043478,0.389317609 9.13043478,0.869565217 L9.13043478,10.5608696 C7.842935,10.9469688 6.96118046,12.131941 6.96118046,13.476087 C6.96118046,14.8202329 7.842935,16.0052051 9.13043478,16.3913043 L9.13043478,18.2608696 C9.13043478,18.7411172 9.51975239,19.1304348 10,19.1304348 C10.4802476,19.1304348 10.8695652,18.7411172 10.8695652,18.2608696 L10.8695652,16.3956522 C12.1596811,16.011014 13.0438237,14.8244946 13.0434783,13.4782609 Z M10,14.7826087 C9.27962859,14.7826087 8.69565217,14.1986323 8.69565217,13.4782609 C8.69565217,12.7578895 9.27962859,12.173913 10,12.173913 C10.7203714,12.173913 11.3043478,12.7578895 11.3043478,13.4782609 C11.3043478,14.1986323 10.7203714,14.7826087 10,14.7826087 Z" id="Shape"></path>
            <path d="M20,5.65217391 C20.0003454,4.30594014 19.1162028,3.1194208 17.826087,2.73478261 L17.826087,0.869565217 C17.826087,0.389317609 17.4367693,0 16.9565217,0 C16.4762741,0 16.0869565,0.389317609 16.0869565,0.869565217 L16.0869565,2.73478261 C14.7994567,3.12088182 13.9177022,4.30585406 13.9177022,5.65 C13.9177022,6.99414594 14.7994567,8.17911818 16.0869565,8.56521739 L16.0869565,18.2608696 C16.0869565,18.7411172 16.4762741,19.1304348 16.9565217,19.1304348 C17.4367693,19.1304348 17.826087,18.7411172 17.826087,18.2608696 L17.826087,8.56956522 C19.1162028,8.18492703 20.0003454,6.99840769 20,5.65217391 Z M16.9565217,6.95652174 C16.2361503,6.95652174 15.6521739,6.37254533 15.6521739,5.65217391 C15.6521739,4.9318025 16.2361503,4.34782609 16.9565217,4.34782609 C17.6768932,4.34782609 18.2608696,4.9318025 18.2608696,5.65217391 C18.2608696,6.37254533 17.6768932,6.95652174 16.9565217,6.95652174 Z" id="Shape"></path>
        </g>
    </g>
</svg>
