<svg id="checkmark-icon" width="18px" height="19px" viewBox="0 0 18 19" version="1.1" xmlns="http://www.w3.org/2000/svg" xmlns:xlink="http://www.w3.org/1999/xlink" style="display: inline;">
    <g stroke="none" stroke-width="1" fill="none" fill-rule="evenodd">
        <g transform="translate(-1.000000, 0.000000)" fill="#9499A0">
            <path d="M4.36392473,11.2808734 L4.36392473,11.2808734 C5.24056719,11.2808734 5.95122631,11.9915325 5.95122631,12.868175 L5.95122631,17.6300797 C5.95122631,18.5067222 5.24056719,19.2173813 4.36392473,19.2173813 L4.36392473,19.2173813 C3.48728227,19.2173813 2.77662314,18.5067222 2.77662314,17.6300797 L2.77662314,12.868175 C2.77662314,11.9915325 3.48728227,11.2808734 4.36392473,11.2808734 Z" id="Rectangle-path" transform="translate(4.363925, 15.249127) rotate(-45.000000) translate(-4.363925, -15.249127) "></path>
            <path d="M11.509091,-0.793650549 L11.509091,-0.793650549 C12.3857335,-0.793650549 13.0963926,-0.0829914226 13.0963926,0.793651037 L13.0963926,18.783069 C13.0963926,19.6597115 12.3857335,20.3703706 11.509091,20.3703706 L11.509091,20.3703706 C10.6324485,20.3703706 9.92178942,19.6597115 9.92178942,18.783069 L9.92178942,0.793651037 C9.92178942,-0.0829914226 10.6324485,-0.793650549 11.509091,-0.793650549 Z" id="Rectangle-path" transform="translate(11.509091, 9.788360) rotate(35.000000) translate(-11.509091, -9.788360) "></path>
        </g>
    </g>
</svg>
